# xmcd
#
# Track frame offsets: 
#        183
#        20175
#        37735
#        51750
#        85478
#        107643
#        132605
#        154880
#
# Disc length: 2270 seconds
#
# Revision: 1
# Processed by: cddbd v1.5.2PL0 Copyright (c) Steve Scherf et al.
# Submitted via: ExactAudioCopyFreeDBPlugin 1.0
#
DISCID=6808dc08
DTITLE=Gary Moore - Back On The Streets (DMCL 1622)
DYEAR=1978
DGENRE=Rock
TTITLE0=Back On The Streets
TTITLE1=Don't Believe A Word
TTITLE2=Fanatical Fascists
TTITLE3=Flight Of The Snow Moose
TTITLE4=Hurricane
TTITLE5=Song For Donna
TTITLE6=What Would You Rather Bee Or A Wasp
TTITLE7=Parisienne Walkways
EXTD=
EXTT0=
EXTT1=
EXTT2=
EXTT3=
EXTT4=
EXTT5=
EXTT6=
EXTT7=
PLAYORDER=
